<?xml version="1.0" ?><!DOCTYPE svg  PUBLIC '-//W3C//DTD SVG 1.1//EN'  'http://www.w3.org/Graphics/SVG/1.1/DTD/svg11.dtd'><svg height="512px" style="enable-background:new 0 0 512 512;" version="1.1" viewBox="0 0 512 512" width="512px" xml:space="preserve" xmlns="http://www.w3.org/2000/svg" xmlns:xlink="http://www.w3.org/1999/xlink"><g id="_x34_3-Bit_Shares"><g><path d="M143.991,54.255c-6.089-5.196-11.845-10.414-18.217-16.255c0,0.903,0,1.54,0,2.15    c0,44.153,0,88.366,0,132.529c0,0.941,0.605,2.136,1.199,2.749c31.285,31.607,62.577,63.201,93.868,94.818    c0.583,0.59,1.229,0.902,1.516,1.232c4.551-1.846,8.813-3.697,13.076-4.949c2.127-0.594,2.43-1.498,2.43-3.348    c0-40.504,0-81.316,0-122.126c0-1.839-0.645-3.053-1.827-4.286C205.346,109.168,174.678,81.846,143.991,54.255z" style="fill:#004D7B;"/><path d="M189.131,319.811c2.258,0,4.781,0.285,7.039,0c0.874,0,1.712-0.6,1.979-1.156    c1.714-4.842,3.409-9.721,5.104-13.666c-25.681-25.959-51.664-52.175-76.771-78.715c0,31.077,0,62.176,0,93.538    c0.847,0,1.96,0,2.798,0C149.332,319.811,169.109,319.811,189.131,319.811z" style="fill:#004D7B;"/><path d="M172.837,446.77c18.985,16.303,40.841,25.223,65.522,27.23c0-24.371,0-48.129,0-71.9    c-5.126-2.285-10.214-4.293-15.329-6.58C206.571,412.416,189.846,429.607,172.837,446.77z" style="fill:#00548C;"/><path d="M289.273,396.182c-3.963,1.451-7.668,3.457-11.635,4.859c-1.701,0.555-2.244,1.438-2.244,3.16    c0,22.291,0,44.891,0,67.191c0,0.605,0,1.434,0,2.607c24.926-2.006,46.713-11.197,65.715-27.475    c-16.707-16.871-33.139-33.74-49.572-50.344C291.26,395.912,289.836,395.912,289.273,396.182z" style="fill:#007FAE;"/><path d="M196.978,357.094c-0.83-1.893-1.369-2.445-3.266-2.445c-21.373,0-42.436,0-63.827,0    c-0.794,0-1.625,0-2.417,0c2.142,24.326,10.526,45.33,25.959,63.352c16.209-16.65,32.439-32.764,48.129-48.885    C200.188,365.295,198.306,361.203,196.978,357.094z" style="fill:#00548C;"/><path d="M276.154,282.73c4.807,1.732,9.316,3.443,14.455,5.463c16.402-16.609,33.117-33.78,50.111-50.93    c-18.699-16.045-40.494-25.467-65.715-27.195c0,1.163,0,2.01,0,2.845c0,22.324,0,44.633,0,66.969c0,0.293-0.285,0.834,0,1.127    C275.293,281.611,275.563,282.457,276.154,282.73z" style="fill:#64C6EF;"/><path d="M318.061,328c22.436,0,45.145,0,68.166,0c-1.91-24.045-10.549-45.102-25.967-63.402    c-16.225,16.387-32.199,32.768-48.148,49.197C314.014,318.166,315.896,323.053,318.061,328z" style="fill:#37A1D6;"/><path d="M336.064,358c-5.646,0-11.045,0-16.697,0c-0.514,0-1.588,0.551-1.875,1.1    c-1.58,4.086-3.203,8.158-4.572,11.943c16.148,16.334,32.012,32.625,48.148,48.922c14.801-17.666,23.137-38.313,25.035-61.965    c-1.361,0-2.16,0-3.238,0C367.26,358,351.668,358,336.064,358z" style="fill:#007FAE;"/></g></g><g id="Layer_1"/></svg>