<svg width="50" height="50" xmlns="http://www.w3.org/2000/svg">

 <g>
  <title>background</title>
  <rect fill="none" id="canvas_background" height="402" width="582" y="-1" x="-1"/>
 </g>
 <g>
  <title>Layer 1</title>
  <path fill="#007fff" id="svg_3" d="m44.7,16l-5.2,-8.9c-0.4,-0.6 -1.1,-1 -1.8,-1l-35,0c-0.9,0 -1.7,0.8 -1.7,1.7l0,18.5c0,1 0.8,1.7 1.7,1.7l35,0c0.7,0 1.4,-0.4 1.8,-1l5.2,-8.9c0.4,-0.6 0.4,-1.4 0,-2.1zm-6.1,3.1c-1.1,0 -2,-0.9 -2,-2s0.9,-2 2,-2c1.1,0 2,0.9 2,2s-0.9,2 -2,2z" class="st0"/>
  <path fill="#656766" id="svg_5" d="m28.9,43.9c-0.3,0 -0.7,0 -1,-0.1c-1.3,-0.2 -2.5,-0.8 -3.3,-1.8c-1.3,-1.6 -1.7,-4.2 -1,-6.5c0.7,-1.9 2.1,-3.6 4,-4.5c1.4,-0.7 3.1,-1.1 5.2,-1.1c0.8,0 1.6,0 2.4,0c0.9,0 1.7,0.1 2.5,0c2.1,-0.1 4.1,-0.5 6.1,-1.2c0.9,-0.4 2,-0.8 2.6,-1.8c0.8,-1.2 0.9,-3.1 0.2,-4.7c-0.6,-1.4 -1.7,-2.5 -3.2,-3.2c-1.4,-0.6 -3,-0.8 -4.5,-0.9c-0.5,0 -1,-0.5 -0.9,-1c0,-0.5 0.5,-1 1,-0.9c1.7,0.1 3.5,0.3 5.2,1c1.9,0.9 3.4,2.4 4.2,4.2c0.9,2.2 0.8,4.8 -0.4,6.6c-0.9,1.4 -2.4,2.1 -3.5,2.5c-2.2,0.8 -4.4,1.3 -6.7,1.3c-0.9,0 -1.8,0 -2.7,0c-0.8,0 -1.5,-0.1 -2.3,0c-1.8,0 -3.2,0.3 -4.4,0.9c-1.4,0.7 -2.5,2 -3,3.4c-0.5,1.6 -0.3,3.5 0.6,4.6c0.6,0.8 1.5,1 2.1,1.1c1.9,0.3 3.9,-0.7 5.2,-2.5c0.3,-0.4 0.9,-0.6 1.4,-0.3s0.6,0.9 0.3,1.4c-1.5,2.2 -3.8,3.5 -6.1,3.5z" class="st1"/>
  <path fill="#ffffff" id="svg_7" d="m7.8,14.6l0,1.9l3.2,0l0,1.1l-3.2,0l0,2.9l-1.2,0l0,-7.1l4.7,0l0,1.1l-3.5,0l0,0.1z" class="st2"/>
  <path fill="#ffffff" id="svg_8" d="m18.4,15.8c0,1.2 -0.5,1.9 -1.5,2.2l1.9,2.6l-1.5,0l-1.7,-2.4l-1.6,0l0,2.4l-1.2,0l0,-7.1l2.6,0c1.1,0 1.9,0.2 2.3,0.5c0.5,0.4 0.7,1 0.7,1.8zm-1.6,1c0.2,-0.2 0.4,-0.5 0.4,-1c0,-0.5 -0.1,-0.8 -0.4,-1c-0.3,-0.2 -0.7,-0.3 -1.3,-0.3l-1.5,0l0,2.5l1.5,0c0.6,0.1 1.1,0 1.3,-0.2z" class="st2"/>
  <path fill="#ffffff" id="svg_9" d="m25.1,13.5l0,1.1l-3.8,0l0,1.9l3.4,0l0,1.1l-3.4,0l0,1.9l3.9,0l0,1.1l-5.1,0l0,-7.1l5,0z" class="st2"/>
  <path fill="#ffffff" id="svg_10" d="m31.8,13.5l0,1.1l-3.8,0l0,1.9l3.4,0l0,1.1l-3.4,0l0,1.9l3.9,0l0,1.1l-5.1,0l0,-7.1l5,0z" class="st2"/>
 </g>
</svg>