<?xml version="1.0" ?><svg viewBox="0 0 128 128" xmlns="http://www.w3.org/2000/svg"><defs><style>.cls-1{fill:#4d91bb;}.cls-2{fill:#2175aa;}.cls-3{fill:#c3edf5;}.cls-4{fill:#87dbec;}.cls-5{fill:#4dbab4;}</style></defs><title/><g data-name="09 Responsive Design" id="_09_Responsive_Design"><rect class="cls-1" height="72" width="96" x="14" y="20"/><rect class="cls-2" height="44" width="42.17" x="67.83" y="48"/><rect class="cls-3" height="80" transform="translate(118 -6) rotate(90)" width="56" x="34" y="16"/><polygon class="cls-4" points="102 84 22 82.5 22 84 102 84"/><rect class="cls-4" height="36" width="34.2" x="67.83" y="48"/><rect class="cls-1" height="9" width="36" x="44" y="95"/><rect class="cls-2" height="9" width="16" x="67.83" y="95"/><rect class="cls-5" height="56" width="42" x="72" y="52"/><rect class="cls-3" height="34" transform="translate(173 -13) rotate(90)" width="40" x="73" y="63"/><polygon class="cls-4" points="22 28 102 31.5 102 28 22 28"/><polygon class="cls-4" points="75.83 60 110 63.38 110 60 75.83 60"/><polygon class="cls-4" points="76 100 76 98.75 110 100 76 100"/></g></svg>