<?xml version="1.0" ?><!DOCTYPE svg  PUBLIC '-//W3C//DTD SVG 1.1//EN'  'http://www.w3.org/Graphics/SVG/1.1/DTD/svg11.dtd'><svg id="Layer_1" style="enable-background:new 0 0 64 64;" version="1.1" viewBox="0 0 64 64" xml:space="preserve" xmlns="http://www.w3.org/2000/svg" xmlns:xlink="http://www.w3.org/1999/xlink"><style type="text/css">
	.st0{fill:#134563;}
</style><g><g id="Icon-Chart" transform="translate(128.000000, 482.000000)"><polyline class="st0" id="Fill-164" points="-105,-433.5 -108,-433.5 -108,-448.5 -114,-448.5 -114,-433.5 -117,-433.5      -117,-451.5 -105,-451.5 -105,-433.5    "/><polyline class="st0" id="Fill-165" points="-90,-433.5 -93,-433.5 -93,-457.5 -99,-457.5 -99,-433.5 -102,-433.5 -102,-460.5      -90,-460.5 -90,-433.5    "/><polyline class="st0" id="Fill-166" points="-75,-433.5 -78,-433.5 -78,-466.5 -84,-466.5 -84,-433.5 -87,-433.5 -87,-469.5      -75,-469.5 -75,-433.5    "/><polygon class="st0" id="Fill-167" points="-120,-433.5 -72,-433.5 -72,-430.5 -120,-430.5    "/></g></g></svg>